<?xml version="1.0" encoding="utf-8"?>
<!-- Generator: Adobe Illustrator 21.1.0, SVG Export Plug-In . SVG Version: 6.00 Build 0)  -->
<svg version="1.1" id="Layer_1" xmlns="http://www.w3.org/2000/svg" xmlns:xlink="http://www.w3.org/1999/xlink" x="0px" y="0px"
	 viewBox="0 0 911.9 132" style="enable-background:new 0 0 911.9 132;" xml:space="preserve">
<style type="text/css">
	.st0{stroke:#FFFFFF;stroke-miterlimit:10;}
	.st1{fill:#D1D3D4;}
	.st2{fill:#FFFFFF;}
	.st3{fill:#BCBEC0;}
	.st4{fill:#9E1F63;}
	.st5{fill:#414141;}
	.st6{fill:none;stroke:#FFFFFF;stroke-width:12;stroke-miterlimit:10;}
	.st7{fill:none;stroke:#BCBEC0;stroke-width:4;stroke-miterlimit:10;}
</style>
<g>
	<path class="st2" d="M216.4,19.8h49.7v15.1h-33.4v15.1h30.9V65h-30.9v28.9h-16.3V19.8z"/>
	<path class="st2" d="M273.9,56.8c0-5.9,1-11.3,3-16.1s4.8-8.9,8.3-12.3c3.6-3.4,7.8-6,12.7-7.8c4.9-1.8,10.2-2.7,16-2.7
		c5.8,0,11.1,0.9,16,2.7c4.9,1.8,9.1,4.4,12.7,7.8c3.6,3.4,6.3,7.5,8.3,12.3c2,4.8,3,10.2,3,16.1c0,5.9-1,11.3-3,16.1
		c-2,4.8-4.8,8.9-8.3,12.3c-3.6,3.4-7.8,6-12.7,7.8c-4.9,1.8-10.2,2.7-16,2.7c-5.8,0-11.1-0.9-16-2.7c-4.9-1.8-9.1-4.4-12.7-7.8
		c-3.6-3.4-6.3-7.5-8.3-12.3S273.9,62.7,273.9,56.8z M290.9,56.8c0,3.5,0.5,6.7,1.6,9.6c1.1,2.9,2.6,5.4,4.7,7.5
		c2,2.1,4.4,3.8,7.3,5s6,1.8,9.5,1.8c3.5,0,6.6-0.6,9.5-1.8s5.2-2.8,7.3-5c2-2.1,3.6-4.6,4.7-7.5c1.1-2.9,1.6-6.1,1.6-9.6
		c0-3.4-0.5-6.6-1.6-9.5c-1.1-2.9-2.6-5.5-4.7-7.6c-2-2.1-4.4-3.8-7.3-5c-2.8-1.2-6-1.8-9.5-1.8c-3.5,0-6.6,0.6-9.5,1.8
		c-2.8,1.2-5.3,2.8-7.3,5c-2,2.1-3.6,4.7-4.7,7.6C291.4,50.2,290.9,53.4,290.9,56.8z"/>
	<path class="st2" d="M379.3,34.2h-21.1V19.8h58.6v14.4h-21.1v59.7h-16.3V34.2z"/>
	<path class="st2" d="M421.1,56.8c0-5.9,1-11.3,3-16.1s4.8-8.9,8.3-12.3c3.6-3.4,7.8-6,12.7-7.8c4.9-1.8,10.2-2.7,16-2.7
		c5.8,0,11.1,0.9,16,2.7c4.9,1.8,9.1,4.4,12.7,7.8c3.6,3.4,6.3,7.5,8.3,12.3s3,10.2,3,16.1c0,5.9-1,11.3-3,16.1s-4.8,8.9-8.3,12.3
		c-3.6,3.4-7.8,6-12.7,7.8c-4.9,1.8-10.2,2.7-16,2.7c-5.8,0-11.1-0.9-16-2.7c-4.9-1.8-9.1-4.4-12.7-7.8c-3.6-3.4-6.3-7.5-8.3-12.3
		S421.1,62.7,421.1,56.8z M438.1,56.8c0,3.5,0.5,6.7,1.6,9.6c1.1,2.9,2.6,5.4,4.7,7.5c2,2.1,4.4,3.8,7.3,5s6,1.8,9.5,1.8
		c3.5,0,6.6-0.6,9.5-1.8c2.8-1.2,5.3-2.8,7.3-5c2-2.1,3.6-4.6,4.7-7.5c1.1-2.9,1.6-6.1,1.6-9.6c0-3.4-0.5-6.6-1.6-9.5
		c-1.1-2.9-2.6-5.5-4.7-7.6c-2-2.1-4.4-3.8-7.3-5c-2.8-1.2-6-1.8-9.5-1.8c-3.5,0-6.6,0.6-9.5,1.8c-2.8,1.2-5.3,2.8-7.3,5
		c-2,2.1-3.6,4.7-4.7,7.6C438.6,50.2,438.1,53.4,438.1,56.8z"/>
	<path class="st2" d="M512.8,19.8h49.7v15.1h-33.4v15.1H560V65h-30.9v28.9h-16.3V19.8z"/>
	<path class="st2" d="M574.9,19.8h16.3v59h30.3v15.1h-46.6V19.8z"/>
	<path class="st2" d="M693,65.3c0,4.4-0.7,8.4-2,12.1c-1.3,3.7-3.3,6.9-5.9,9.6c-2.6,2.7-5.9,4.9-9.8,6.4c-3.9,1.5-8.4,2.3-13.5,2.3
		c-5.2,0-9.7-0.8-13.6-2.3c-3.9-1.5-7.2-3.7-9.8-6.4c-2.6-2.7-4.6-5.9-5.9-9.6c-1.3-3.7-2-7.7-2-12.1V19.8h16.3v44.9
		c0,2.3,0.4,4.4,1.1,6.4c0.7,2,1.8,3.6,3.1,5.1c1.3,1.4,2.9,2.5,4.8,3.4c1.8,0.8,3.9,1.2,6,1.2c2.2,0,4.2-0.4,6-1.2
		c1.8-0.8,3.4-1.9,4.7-3.4c1.3-1.4,2.4-3.1,3.1-5.1c0.7-2,1.1-4.1,1.1-6.4V19.8H693V65.3z"/>
	<path class="st2" d="M708.7,19.8h50.4v15.1h-34v13.8h32.1v15.1H725v15.1h35.9v15.1h-52.2V19.8z"/>
	<path class="st2" d="M774,19.8h22.2l31.5,51.5h0.2V19.8h16.3v74.1h-21.4l-32.3-52.8h-0.2v52.8H774V19.8z"/>
	<path class="st2" d="M873.7,34.2h-21.1V19.8h58.6v14.4H890v59.7h-16.3V34.2z"/>
</g>
<g>
	<polygon class="st2" points="156.8,130.1 127.7,106.3 157,106.3 	"/>
</g>
<g>
	<g>
		<path class="st2" d="M52.8,44.3l41.6,49.2h8.2L85.6,73.5l13.4-15.9l30.3,35.9h22V13H12.9v78.6L52.8,44.3z M127.8,24.2
			c6.9,0,12.4,5.6,12.4,12.4s-5.6,12.4-12.4,12.4c-6.9,0-12.4-5.6-12.4-12.4S120.9,24.2,127.8,24.2z"/>
	</g>
	<g>
		<path class="st2" d="M0.2,0.2v106.1h164V0.2H0.2z M156.8,98.9H7.5V7.6h149.3V98.9z"/>
	</g>
</g>
</svg>
