<?xml version="1.0" encoding="utf-8"?>
<!-- Generator: Adobe Illustrator 21.1.0, SVG Export Plug-In . SVG Version: 6.00 Build 0)  -->
<svg version="1.1" id="Layer_1" xmlns="http://www.w3.org/2000/svg" xmlns:xlink="http://www.w3.org/1999/xlink" x="0px" y="0px"
	 viewBox="0 0 87.1 86.4" style="enable-background:new 0 0 87.1 86.4;" xml:space="preserve">
<style type="text/css">
	.st0{fill:#404040;}
</style>
<g>
	<path class="st0" d="M1.1,36.2C1.5,24.1,6.2,14.7,15.4,7.7c7.4-5.6,15.8-7.8,25-6.8c17.2,1.9,30.5,16.2,31.2,33.6
		c0.3,7.4-1.6,14.3-5.6,20.5c-0.5,0.7-0.4,1.1,0.2,1.7c6.1,6,12.1,12.1,18.2,18.1c1.9,1.8,2.7,4,2,6.5c-1.1,4.4-6.6,6.3-10.1,3.4
		c-1.3-1.1-2.5-2.3-3.7-3.5C67.4,75.9,62.2,70.8,57,65.5c-0.5-0.5-0.8-0.5-1.4-0.1c-6.8,4.4-14.3,6.3-22.3,5.6
		C17.9,69.7,5,58.1,1.9,43C1.4,40.6,1.3,38.1,1.1,36.2z M36.4,13.5C23.8,13.6,14.3,23.4,14,35c-0.4,13.5,10.3,23.3,22.4,23.3
		c12.4,0,22.5-10,22.5-22.2C58.8,23.5,48.9,13.5,36.4,13.5z"/>
</g>
</svg>
